<svg width="367.909" height="81.6" viewBox="0 0 367.909 81.6" xmlns="http://www.w3.org/2000/svg"><g id="svgGroup" stroke-linecap="round" fill-rule="evenodd" font-size="9pt" stroke="#bfff00" stroke-width="0.25mm" fill="#00ffff" style="stroke:#bfff00;stroke-width:0.25mm;fill:#00ffff"><path d="M 52.088 76.62 A 49.342 49.342 0 0 0 58.329 77 A 66.079 66.079 0 0 0 62.197 76.885 A 76.165 76.165 0 0 0 72.479 75.55 Q 79.829 74.1 86.779 71.45 A 75.82 75.82 0 0 0 90.224 70.04 A 64.82 64.82 0 0 0 99.379 65.15 Q 105.029 61.5 108.329 56.95 A 19.993 19.993 0 0 0 108.921 56.087 A 16.058 16.058 0 0 0 111.629 47.2 Q 111.629 42.4 108.979 39.3 A 18.211 18.211 0 0 0 106.143 36.635 A 22.569 22.569 0 0 0 102.079 34.2 A 58.43 58.43 0 0 0 100.188 33.351 A 66.135 66.135 0 0 0 92.929 30.75 Q 88.029 29.3 83.579 27.8 A 41.168 41.168 0 0 1 82.706 27.495 Q 78.83 26.091 76.129 24.2 A 16.812 16.812 0 0 1 75.229 23.51 A 18.555 18.555 0 0 1 72.329 20.5 Q 70.629 18.3 70.629 15.6 Q 70.629 12.8 72.329 10.6 Q 74.029 8.4 76.229 6.9 Q 83.229 8.3 90.079 10.2 Q 96.929 12.1 103.829 13.9 Q 105.629 14.3 107.479 14.8 Q 109.329 15.3 111.229 15.3 A 7.643 7.643 0 0 0 111.607 15.291 Q 112.334 15.255 112.936 15.077 A 3.644 3.644 0 0 0 114.679 14 A 5.447 5.447 0 0 0 114.884 13.754 A 4.2 4.2 0 0 0 115.829 11.1 Q 115.829 9.8 115.129 8.7 A 10.32 10.32 0 0 0 112.528 5.847 A 14.15 14.15 0 0 0 109.829 4.25 Q 106.229 2.6 101.729 1.85 Q 97.229 1.1 92.729 1.1 A 59.657 59.657 0 0 0 89.799 1.17 A 49.535 49.535 0 0 0 85.229 1.6 A 47.23 47.23 0 0 0 83.529 1.873 Q 82.343 2.087 81.322 2.342 A 22.086 22.086 0 0 0 79.429 2.9 Q 74.429 1.5 69.329 0.75 Q 64.229 0 59.029 0 Q 55.029 0 50.329 0.65 Q 45.629 1.3 41.329 3.05 A 21.239 21.239 0 0 0 39.771 3.757 A 17.58 17.58 0 0 0 34.279 8 A 11.023 11.023 0 0 0 31.915 12.781 A 16.015 16.015 0 0 0 31.529 16.4 A 16.387 16.387 0 0 0 31.545 17.143 A 13.656 13.656 0 0 0 33.429 23.6 Q 35.329 26.8 38.429 29.1 Q 41.529 31.4 45.229 32.6 A 26.583 26.583 0 0 0 46.267 32.914 A 23.162 23.162 0 0 0 52.529 33.8 Q 52.988 33.8 54.092 33.712 A 86.943 86.943 0 0 0 54.829 33.65 A 27.005 27.005 0 0 0 55.277 33.607 A 24.19 24.19 0 0 0 58.079 33.15 Q 59.099 32.92 59.447 32.581 A 0.525 0.525 0 0 0 59.629 32.2 A 0.442 0.442 0 0 0 59.616 32.089 Q 59.58 31.953 59.447 31.915 A 0.432 0.432 0 0 0 59.329 31.9 Q 59.029 31.9 58.679 31.95 A 4.731 4.731 0 0 1 58.409 31.98 A 5.693 5.693 0 0 1 57.929 32 Q 56.426 32 54.552 31.667 A 33.53 33.53 0 0 1 52.179 31.15 Q 48.829 30.3 45.629 28.95 A 41.993 41.993 0 0 1 44.166 28.301 Q 43.042 27.776 42.097 27.243 A 20.283 20.283 0 0 1 40.429 26.2 A 18.789 18.789 0 0 1 38.407 24.393 A 22.602 22.602 0 0 1 35.779 21.1 A 14.037 14.037 0 0 1 35.243 20.222 A 11.343 11.343 0 0 1 33.729 14.6 A 9.333 9.333 0 0 1 33.928 12.616 A 6.173 6.173 0 0 1 35.879 9.2 A 12.312 12.312 0 0 1 37.942 7.729 A 14.664 14.664 0 0 1 41.129 6.4 Q 44.629 5.4 48.379 5.05 Q 52.129 4.7 55.829 4.7 Q 60.129 4.7 64.329 5.1 Q 68.529 5.5 72.629 6.3 A 21.07 21.07 0 0 0 72.007 6.738 A 22.374 22.374 0 0 0 67.179 11.6 Q 64.829 14.8 64.829 18.7 A 12.453 12.453 0 0 0 64.919 20.225 A 9.551 9.551 0 0 0 66.729 24.85 A 14.618 14.618 0 0 0 68.023 26.361 A 16.23 16.23 0 0 0 71.629 29.1 Q 74.629 30.8 77.929 32 Q 81.229 33.2 83.929 34.2 A 143.49 143.49 0 0 1 85.778 34.874 Q 91.288 36.928 95.088 38.894 A 38.177 38.177 0 0 1 98.629 40.95 A 14.055 14.055 0 0 1 100.686 42.593 A 8.808 8.808 0 0 1 103.529 49.1 A 13.224 13.224 0 0 1 102.955 52.968 A 15.104 15.104 0 0 1 100.829 57.25 A 25.257 25.257 0 0 1 97.779 60.815 A 32.358 32.358 0 0 1 93.579 64.25 A 46.96 46.96 0 0 1 91.238 65.769 A 53.166 53.166 0 0 1 83.429 69.65 Q 77.829 71.9 71.829 73.15 A 63.67 63.67 0 0 1 68.493 73.754 A 53.86 53.86 0 0 1 60.329 74.4 A 43.325 43.325 0 0 1 59.914 74.398 Q 56.819 74.368 54.09 73.895 A 25.871 25.871 0 0 1 48.029 72.1 Q 42.829 69.8 41.829 64.7 A 12.419 12.419 0 0 1 41.761 64.332 A 10.396 10.396 0 0 1 41.679 63.75 A 8.664 8.664 0 0 1 41.648 63.42 A 7.195 7.195 0 0 1 41.629 62.9 Q 41.629 60.1 43.579 57.4 A 10.808 10.808 0 0 1 44.978 55.829 Q 45.96 54.914 47.271 54.079 A 24.444 24.444 0 0 1 49.979 52.6 A 26.517 26.517 0 0 1 53.41 51.286 Q 55.312 50.694 57.586 50.232 A 64.912 64.912 0 0 1 62.029 49.5 A 104.116 104.116 0 0 1 62.398 49.457 Q 64.008 49.274 66.379 49.05 Q 69.029 48.8 71.929 48.8 Q 76.629 48.8 81.129 49.65 A 17.481 17.481 0 0 1 83.424 50.235 Q 84.607 50.631 85.52 51.171 A 6.729 6.729 0 0 1 87.429 52.8 Q 87.532 53.006 87.688 53.106 A 0.619 0.619 0 0 0 88.029 53.2 A 1.179 1.179 0 0 0 88.325 53.166 Q 88.829 53.035 88.829 52.4 A 0.419 0.419 0 0 0 88.807 52.267 Q 88.762 52.134 88.629 52 A 4.841 4.841 0 0 0 87.623 50.814 Q 87.066 50.327 86.308 49.906 A 12.187 12.187 0 0 0 84.779 49.2 A 31.462 31.462 0 0 0 82.16 48.324 A 39.597 39.597 0 0 0 78.429 47.45 A 71.676 71.676 0 0 0 76.484 47.116 A 61.354 61.354 0 0 0 71.729 46.55 Q 68.529 46.3 66.729 46.3 A 79.827 79.827 0 0 0 61.016 46.494 Q 53.828 47.011 48.779 48.9 Q 41.829 51.5 38.579 55.45 A 19.943 19.943 0 0 0 38.5 55.546 Q 37.285 57.042 36.535 58.559 A 11.053 11.053 0 0 0 35.329 63.5 Q 35.329 64.1 35.379 64.65 Q 35.429 65.2 35.529 65.7 Q 36.329 69.6 39.529 72.1 A 16.01 16.01 0 0 0 39.699 72.231 Q 41.438 73.553 43.666 74.501 A 25.755 25.755 0 0 0 47.629 75.8 A 40.019 40.019 0 0 0 52.088 76.62 Z M 274.188 76.62 A 49.342 49.342 0 0 0 280.429 77 A 66.079 66.079 0 0 0 284.297 76.885 A 76.165 76.165 0 0 0 294.579 75.55 Q 301.929 74.1 308.879 71.45 A 75.82 75.82 0 0 0 312.324 70.04 A 64.82 64.82 0 0 0 321.479 65.15 Q 327.129 61.5 330.429 56.95 A 19.993 19.993 0 0 0 331.021 56.087 A 16.058 16.058 0 0 0 333.729 47.2 Q 333.729 42.4 331.079 39.3 A 18.211 18.211 0 0 0 328.243 36.635 A 22.569 22.569 0 0 0 324.179 34.2 A 58.43 58.43 0 0 0 322.288 33.351 A 66.135 66.135 0 0 0 315.029 30.75 Q 310.129 29.3 305.679 27.8 A 41.168 41.168 0 0 1 304.806 27.495 Q 300.93 26.091 298.229 24.2 A 16.812 16.812 0 0 1 297.329 23.51 A 18.555 18.555 0 0 1 294.429 20.5 Q 292.729 18.3 292.729 15.6 Q 292.729 12.8 294.429 10.6 Q 296.129 8.4 298.329 6.9 Q 305.329 8.3 312.179 10.2 Q 319.029 12.1 325.929 13.9 Q 327.729 14.3 329.579 14.8 Q 331.429 15.3 333.329 15.3 A 7.643 7.643 0 0 0 333.707 15.291 Q 334.434 15.255 335.036 15.077 A 3.644 3.644 0 0 0 336.779 14 A 5.447 5.447 0 0 0 336.984 13.754 A 4.2 4.2 0 0 0 337.929 11.1 Q 337.929 9.8 337.229 8.7 A 10.32 10.32 0 0 0 334.628 5.847 A 14.15 14.15 0 0 0 331.929 4.25 Q 328.329 2.6 323.829 1.85 Q 319.329 1.1 314.829 1.1 A 59.657 59.657 0 0 0 311.899 1.17 A 49.535 49.535 0 0 0 307.329 1.6 A 47.23 47.23 0 0 0 305.629 1.873 Q 304.443 2.087 303.422 2.342 A 22.086 22.086 0 0 0 301.529 2.9 Q 296.529 1.5 291.429 0.75 Q 286.329 0 281.129 0 Q 277.129 0 272.429 0.65 Q 267.729 1.3 263.429 3.05 A 21.239 21.239 0 0 0 261.871 3.757 A 17.58 17.58 0 0 0 256.379 8 A 11.023 11.023 0 0 0 254.015 12.781 A 16.015 16.015 0 0 0 253.629 16.4 A 16.387 16.387 0 0 0 253.645 17.143 A 13.656 13.656 0 0 0 255.529 23.6 Q 257.429 26.8 260.529 29.1 Q 263.629 31.4 267.329 32.6 A 26.583 26.583 0 0 0 268.367 32.914 A 23.162 23.162 0 0 0 274.629 33.8 Q 275.088 33.8 276.192 33.712 A 86.943 86.943 0 0 0 276.929 33.65 A 27.005 27.005 0 0 0 277.377 33.607 A 24.19 24.19 0 0 0 280.179 33.15 Q 281.199 32.92 281.547 32.581 A 0.525 0.525 0 0 0 281.729 32.2 A 0.442 0.442 0 0 0 281.716 32.089 Q 281.68 31.953 281.547 31.915 A 0.432 0.432 0 0 0 281.429 31.9 Q 281.129 31.9 280.779 31.95 A 4.731 4.731 0 0 1 280.509 31.98 A 5.693 5.693 0 0 1 280.029 32 Q 278.526 32 276.652 31.667 A 33.53 33.53 0 0 1 274.279 31.15 Q 270.929 30.3 267.729 28.95 A 41.993 41.993 0 0 1 266.266 28.301 Q 265.142 27.776 264.197 27.243 A 20.283 20.283 0 0 1 262.529 26.2 A 18.789 18.789 0 0 1 260.507 24.393 A 22.602 22.602 0 0 1 257.879 21.1 A 14.037 14.037 0 0 1 257.343 20.222 A 11.343 11.343 0 0 1 255.829 14.6 A 9.333 9.333 0 0 1 256.028 12.616 A 6.173 6.173 0 0 1 257.979 9.2 A 12.312 12.312 0 0 1 260.042 7.729 A 14.664 14.664 0 0 1 263.229 6.4 Q 266.729 5.4 270.479 5.05 Q 274.229 4.7 277.929 4.7 Q 282.229 4.7 286.429 5.1 Q 290.629 5.5 294.729 6.3 A 21.07 21.07 0 0 0 294.107 6.738 A 22.374 22.374 0 0 0 289.279 11.6 Q 286.929 14.8 286.929 18.7 A 12.453 12.453 0 0 0 287.019 20.225 A 9.551 9.551 0 0 0 288.829 24.85 A 14.618 14.618 0 0 0 290.123 26.361 A 16.23 16.23 0 0 0 293.729 29.1 Q 296.729 30.8 300.029 32 Q 303.329 33.2 306.029 34.2 A 143.49 143.49 0 0 1 307.878 34.874 Q 313.388 36.928 317.188 38.894 A 38.177 38.177 0 0 1 320.729 40.95 A 14.055 14.055 0 0 1 322.786 42.593 A 8.808 8.808 0 0 1 325.629 49.1 A 13.224 13.224 0 0 1 325.055 52.968 A 15.104 15.104 0 0 1 322.929 57.25 A 25.257 25.257 0 0 1 319.879 60.815 A 32.358 32.358 0 0 1 315.679 64.25 A 46.96 46.96 0 0 1 313.338 65.769 A 53.166 53.166 0 0 1 305.529 69.65 Q 299.929 71.9 293.929 73.15 A 63.67 63.67 0 0 1 290.593 73.754 A 53.86 53.86 0 0 1 282.429 74.4 A 43.325 43.325 0 0 1 282.014 74.398 Q 278.919 74.368 276.19 73.895 A 25.871 25.871 0 0 1 270.129 72.1 Q 264.929 69.8 263.929 64.7 A 12.419 12.419 0 0 1 263.861 64.332 A 10.396 10.396 0 0 1 263.779 63.75 A 8.664 8.664 0 0 1 263.748 63.42 A 7.195 7.195 0 0 1 263.729 62.9 Q 263.729 60.1 265.679 57.4 A 10.808 10.808 0 0 1 267.078 55.829 Q 268.06 54.914 269.371 54.079 A 24.444 24.444 0 0 1 272.079 52.6 A 26.517 26.517 0 0 1 275.51 51.286 Q 277.412 50.694 279.686 50.232 A 64.912 64.912 0 0 1 284.129 49.5 A 104.116 104.116 0 0 1 284.498 49.457 Q 286.108 49.274 288.479 49.05 Q 291.129 48.8 294.029 48.8 Q 298.729 48.8 303.229 49.65 A 17.481 17.481 0 0 1 305.524 50.235 Q 306.707 50.631 307.62 51.171 A 6.729 6.729 0 0 1 309.529 52.8 Q 309.632 53.006 309.788 53.106 A 0.619 0.619 0 0 0 310.129 53.2 A 1.179 1.179 0 0 0 310.425 53.166 Q 310.929 53.035 310.929 52.4 A 0.419 0.419 0 0 0 310.907 52.267 Q 310.862 52.134 310.729 52 A 4.841 4.841 0 0 0 309.723 50.814 Q 309.166 50.327 308.408 49.906 A 12.187 12.187 0 0 0 306.879 49.2 A 31.462 31.462 0 0 0 304.26 48.324 A 39.597 39.597 0 0 0 300.529 47.45 A 71.676 71.676 0 0 0 298.584 47.116 A 61.354 61.354 0 0 0 293.829 46.55 Q 290.629 46.3 288.829 46.3 A 79.827 79.827 0 0 0 283.116 46.494 Q 275.928 47.011 270.879 48.9 Q 263.929 51.5 260.679 55.45 A 19.943 19.943 0 0 0 260.6 55.546 Q 259.385 57.042 258.635 58.559 A 11.053 11.053 0 0 0 257.429 63.5 Q 257.429 64.1 257.479 64.65 Q 257.529 65.2 257.629 65.7 Q 258.429 69.6 261.629 72.1 A 16.01 16.01 0 0 0 261.799 72.231 Q 263.538 73.553 265.766 74.501 A 25.755 25.755 0 0 0 269.729 75.8 A 40.019 40.019 0 0 0 274.188 76.62 Z M 172.929 80.4 L 242.929 6.6 Q 243.416 6.032 244.76 5.826 A 9.232 9.232 0 0 1 245.429 5.75 Q 247.294 5.603 248.196 5.6 A 11.15 11.15 0 0 1 248.229 5.6 A 7.219 7.219 0 0 1 248.371 5.602 Q 248.715 5.609 249.534 5.644 A 189.643 189.643 0 0 1 249.679 5.65 Q 250.829 5.7 251.879 5.9 A 3.523 3.523 0 0 1 252.249 5.99 Q 252.929 6.198 252.929 6.6 Q 252.929 6.687 250.621 8.93 A 410.307 410.307 0 0 1 249.879 9.65 Q 246.829 12.6 241.629 17.6 Q 236.774 22.268 230.743 28.113 A 5507.578 5507.578 0 0 0 229.879 28.95 Q 223.329 35.3 216.229 42.1 Q 209.129 48.9 202.329 55.45 Q 195.529 62 189.779 67.5 Q 184.029 73 180.229 76.65 Q 176.429 80.3 175.329 81.3 A 1.004 1.004 0 0 1 174.78 81.579 A 1.432 1.432 0 0 1 174.529 81.6 Q 174.239 81.6 173.576 81.367 A 10.593 10.593 0 0 1 173.529 81.35 A 2.235 2.235 0 0 1 173.26 81.236 Q 172.981 81.092 172.883 80.911 A 0.435 0.435 0 0 1 172.829 80.7 A 0.426 0.426 0 0 1 172.858 80.547 A 0.523 0.523 0 0 1 172.879 80.5 L 172.929 80.4 Z M 119.748 57.088 A 0.247 0.247 0 0 0 119.829 57.1 Q 120.429 57.1 121.129 56.6 Q 126.829 53.2 132.479 50.1 A 563.559 563.559 0 0 0 134.992 48.713 Q 138.879 46.555 141.329 45.1 A 41.034 41.034 0 0 1 141.56 44.786 Q 141.915 44.307 142.323 43.783 A 70.031 70.031 0 0 1 143.229 42.65 A 58.945 58.945 0 0 0 143.877 41.84 Q 144.547 40.988 145.029 40.3 A 118.596 118.596 0 0 0 145.106 40.192 Q 145.544 39.576 145.729 39.3 Q 145.873 38.94 145.757 38.761 A 0.318 0.318 0 0 0 145.629 38.65 A 2.479 2.479 0 0 0 145.457 38.573 Q 145.156 38.451 144.629 38.3 A 7.748 7.748 0 0 1 144.566 38.273 Q 143.627 37.861 142.444 37.05 A 26.384 26.384 0 0 1 141.279 36.2 A 29.848 29.848 0 0 1 140.914 35.915 A 32.583 32.583 0 0 1 137.529 32.8 A 22.793 22.793 0 0 1 136.182 31.248 A 17.964 17.964 0 0 1 134.629 28.95 A 8.274 8.274 0 0 1 134.434 28.584 Q 133.566 26.849 133.929 25.4 A 1.791 1.791 0 0 0 133.932 25.39 Q 134.108 24.945 133.707 25.24 A 2.465 2.465 0 0 0 133.629 25.3 A 5.139 5.139 0 0 0 133.362 25.54 Q 132.821 26.06 132.029 27.05 Q 131.029 28.3 130.529 28.9 Q 130.329 29.3 129.779 30.1 Q 129.229 30.9 129.029 31.3 A 1.265 1.265 0 0 0 129 31.4 Q 128.929 31.693 128.929 32.2 A 3.974 3.974 0 0 0 129.04 33.12 Q 129.18 33.707 129.493 34.328 A 8.575 8.575 0 0 0 130.179 35.45 A 15.136 15.136 0 0 0 131.041 36.545 A 17.543 17.543 0 0 0 133.279 38.7 Q 135.129 40.2 137.029 41.25 A 20.513 20.513 0 0 0 137.108 41.294 Q 138.311 41.951 139.27 42.264 A 6.116 6.116 0 0 0 140.229 42.5 Q 139.229 43.1 136.579 44.6 Q 133.929 46.1 130.779 48 Q 127.629 49.9 124.779 51.9 Q 121.929 53.9 120.329 55.6 A 3.2 3.2 0 0 0 120.173 55.767 Q 120.014 55.95 119.909 56.133 A 1.549 1.549 0 0 0 119.729 56.6 A 1.753 1.753 0 0 0 119.696 56.688 Q 119.58 57.03 119.748 57.088 Z M 341.848 57.088 A 0.247 0.247 0 0 0 341.929 57.1 Q 342.529 57.1 343.229 56.6 Q 348.929 53.2 354.579 50.1 A 563.559 563.559 0 0 0 357.092 48.713 Q 360.979 46.555 363.429 45.1 A 41.034 41.034 0 0 1 363.66 44.786 Q 364.015 44.307 364.423 43.783 A 70.031 70.031 0 0 1 365.329 42.65 A 58.945 58.945 0 0 0 365.977 41.84 Q 366.647 40.988 367.129 40.3 A 118.596 118.596 0 0 0 367.206 40.192 Q 367.644 39.576 367.829 39.3 Q 367.973 38.94 367.857 38.761 A 0.318 0.318 0 0 0 367.729 38.65 A 2.479 2.479 0 0 0 367.557 38.573 Q 367.256 38.451 366.729 38.3 A 7.748 7.748 0 0 1 366.666 38.273 Q 365.727 37.861 364.544 37.05 A 26.384 26.384 0 0 1 363.379 36.2 A 29.848 29.848 0 0 1 363.014 35.915 A 32.583 32.583 0 0 1 359.629 32.8 A 22.793 22.793 0 0 1 358.282 31.248 A 17.964 17.964 0 0 1 356.729 28.95 A 8.274 8.274 0 0 1 356.534 28.584 Q 355.666 26.849 356.029 25.4 A 1.791 1.791 0 0 0 356.032 25.39 Q 356.208 24.945 355.807 25.24 A 2.465 2.465 0 0 0 355.729 25.3 A 5.139 5.139 0 0 0 355.462 25.54 Q 354.921 26.06 354.129 27.05 Q 353.129 28.3 352.629 28.9 Q 352.429 29.3 351.879 30.1 Q 351.329 30.9 351.129 31.3 A 1.265 1.265 0 0 0 351.1 31.4 Q 351.029 31.693 351.029 32.2 A 3.974 3.974 0 0 0 351.14 33.12 Q 351.28 33.707 351.593 34.328 A 8.575 8.575 0 0 0 352.279 35.45 A 15.136 15.136 0 0 0 353.141 36.545 A 17.543 17.543 0 0 0 355.379 38.7 Q 357.229 40.2 359.129 41.25 A 20.513 20.513 0 0 0 359.208 41.294 Q 360.411 41.951 361.37 42.264 A 6.116 6.116 0 0 0 362.329 42.5 Q 361.329 43.1 358.679 44.6 Q 356.029 46.1 352.879 48 Q 349.729 49.9 346.879 51.9 Q 344.029 53.9 342.429 55.6 A 3.2 3.2 0 0 0 342.273 55.767 Q 342.114 55.95 342.009 56.133 A 1.549 1.549 0 0 0 341.829 56.6 A 1.753 1.753 0 0 0 341.796 56.688 Q 341.68 57.03 341.848 57.088 Z M 26.009 25.212 A 0.247 0.247 0 0 0 25.929 25.2 A 1.16 1.16 0 0 0 25.762 25.213 Q 25.447 25.258 25.032 25.47 A 5.356 5.356 0 0 0 24.629 25.7 Q 18.929 29.1 13.279 32.2 A 563.559 563.559 0 0 0 10.765 33.587 Q 6.879 35.745 4.429 37.2 A 70.85 70.85 0 0 0 3.904 37.864 Q 3.63 38.216 3.331 38.606 A 131.05 131.05 0 0 0 2.579 39.6 A 134.585 134.585 0 0 1 1.947 40.436 Q 1.279 41.313 0.729 42 A 118.596 118.596 0 0 0 0.651 42.108 Q 0.213 42.724 0.029 43 Q -0.071 43.4 0.179 43.6 A 1.098 1.098 0 0 0 0.337 43.703 Q 0.609 43.852 1.129 44 A 7.748 7.748 0 0 1 1.191 44.027 Q 2.13 44.44 3.314 45.25 A 26.384 26.384 0 0 1 4.479 46.1 A 29.848 29.848 0 0 1 4.843 46.385 A 32.583 32.583 0 0 1 8.229 49.5 A 22.793 22.793 0 0 1 9.576 51.052 A 17.964 17.964 0 0 1 11.129 53.35 A 8.274 8.274 0 0 1 11.323 53.716 Q 12.191 55.451 11.829 56.9 A 1.02 1.02 0 0 0 11.804 56.952 Q 11.675 57.251 12.053 57.044 A 2.304 2.304 0 0 0 12.129 57 A 5.139 5.139 0 0 0 12.395 56.76 Q 12.936 56.24 13.729 55.25 A 309.175 309.175 0 0 1 13.746 55.228 Q 14.733 53.995 15.229 53.4 A 3.376 3.376 0 0 1 15.351 53.179 Q 15.576 52.803 16.029 52.2 Q 16.629 51.4 16.729 51 A 1.265 1.265 0 0 0 16.757 50.9 Q 16.829 50.607 16.829 50.1 A 3.974 3.974 0 0 0 16.717 49.18 Q 16.577 48.593 16.264 47.972 A 8.575 8.575 0 0 0 15.579 46.85 A 15.136 15.136 0 0 0 14.716 45.755 A 17.543 17.543 0 0 0 12.479 43.6 Q 10.629 42.1 8.729 41.05 A 20.513 20.513 0 0 0 8.649 41.007 Q 7.447 40.349 6.487 40.036 A 6.116 6.116 0 0 0 5.529 39.8 Q 6.354 39.35 8.022 38.394 A 478.34 478.34 0 0 0 9.229 37.7 Q 11.829 36.2 14.979 34.3 A 112.418 112.418 0 0 0 15.077 34.241 A 103.399 103.399 0 0 0 20.979 30.4 Q 23.829 28.4 25.429 26.7 A 3.2 3.2 0 0 0 25.584 26.533 Q 25.743 26.35 25.848 26.167 A 1.549 1.549 0 0 0 26.029 25.7 A 1.753 1.753 0 0 0 26.061 25.612 Q 26.177 25.27 26.009 25.212 Z M 188.009 25.212 A 0.247 0.247 0 0 0 187.929 25.2 A 1.16 1.16 0 0 0 187.762 25.213 Q 187.447 25.258 187.032 25.47 A 5.356 5.356 0 0 0 186.629 25.7 Q 180.929 29.1 175.279 32.2 A 563.559 563.559 0 0 0 172.765 33.587 Q 168.879 35.745 166.429 37.2 A 70.85 70.85 0 0 0 165.904 37.864 Q 165.63 38.216 165.331 38.606 A 131.05 131.05 0 0 0 164.579 39.6 A 134.585 134.585 0 0 1 163.947 40.436 Q 163.279 41.313 162.729 42 A 118.596 118.596 0 0 0 162.651 42.108 Q 162.213 42.724 162.029 43 Q 161.929 43.4 162.179 43.6 A 1.098 1.098 0 0 0 162.337 43.703 Q 162.609 43.852 163.129 44 A 7.748 7.748 0 0 1 163.191 44.027 Q 164.13 44.44 165.314 45.25 A 26.384 26.384 0 0 1 166.479 46.1 A 29.848 29.848 0 0 1 166.843 46.385 A 32.583 32.583 0 0 1 170.229 49.5 A 22.793 22.793 0 0 1 171.576 51.052 A 17.964 17.964 0 0 1 173.129 53.35 A 8.274 8.274 0 0 1 173.323 53.716 Q 174.191 55.451 173.829 56.9 A 1.02 1.02 0 0 0 173.804 56.952 Q 173.675 57.251 174.053 57.044 A 2.304 2.304 0 0 0 174.129 57 A 5.139 5.139 0 0 0 174.395 56.76 Q 174.936 56.24 175.729 55.25 A 309.175 309.175 0 0 1 175.746 55.228 Q 176.733 53.995 177.229 53.4 A 3.376 3.376 0 0 1 177.351 53.179 Q 177.576 52.803 178.029 52.2 Q 178.629 51.4 178.729 51 A 1.265 1.265 0 0 0 178.757 50.9 Q 178.829 50.607 178.829 50.1 A 3.974 3.974 0 0 0 178.717 49.18 Q 178.577 48.593 178.264 47.972 A 8.575 8.575 0 0 0 177.579 46.85 A 15.136 15.136 0 0 0 176.716 45.755 A 17.543 17.543 0 0 0 174.479 43.6 Q 172.629 42.1 170.729 41.05 A 20.513 20.513 0 0 0 170.649 41.007 Q 169.447 40.349 168.487 40.036 A 6.116 6.116 0 0 0 167.529 39.8 Q 168.354 39.35 170.022 38.394 A 478.34 478.34 0 0 0 171.229 37.7 Q 173.829 36.2 176.979 34.3 A 112.418 112.418 0 0 0 177.077 34.241 A 103.399 103.399 0 0 0 182.979 30.4 Q 185.829 28.4 187.429 26.7 A 3.2 3.2 0 0 0 187.584 26.533 Q 187.743 26.35 187.848 26.167 A 1.549 1.549 0 0 0 188.029 25.7 A 1.753 1.753 0 0 0 188.061 25.612 Q 188.177 25.27 188.009 25.212 Z M 109.829 11.3 A 8.507 8.507 0 0 0 110.679 11.261 Q 112.429 11.084 112.429 10.1 A 1.57 1.57 0 0 0 112.275 9.452 Q 111.982 8.805 111.129 8.05 Q 110.011 7.062 108.377 6.11 A 25.88 25.88 0 0 0 107.829 5.8 Q 105.829 4.7 103.629 4.1 Q 97.929 2.6 92.429 2.6 Q 87.529 2.6 82.929 3.9 A 175.422 175.422 0 0 1 85.033 4.563 Q 85.975 4.866 87.023 5.213 A 354.85 354.85 0 0 1 89.229 5.95 Q 92.929 7.2 96.979 8.45 A 157.927 157.927 0 0 0 101.865 9.876 A 129.233 129.233 0 0 0 104.629 10.6 A 34.687 34.687 0 0 0 105.847 10.865 Q 106.513 10.996 107.106 11.082 A 18.581 18.581 0 0 0 107.629 11.15 Q 108.929 11.3 109.829 11.3 Z M 331.929 11.3 A 8.507 8.507 0 0 0 332.779 11.261 Q 334.529 11.084 334.529 10.1 A 1.57 1.57 0 0 0 334.375 9.452 Q 334.082 8.805 333.229 8.05 Q 332.111 7.062 330.477 6.11 A 25.88 25.88 0 0 0 329.929 5.8 Q 327.929 4.7 325.729 4.1 Q 320.029 2.6 314.529 2.6 Q 309.629 2.6 305.029 3.9 A 175.422 175.422 0 0 1 307.133 4.563 Q 308.075 4.866 309.123 5.213 A 354.85 354.85 0 0 1 311.329 5.95 Q 315.029 7.2 319.079 8.45 A 157.927 157.927 0 0 0 323.965 9.876 A 129.233 129.233 0 0 0 326.729 10.6 A 34.687 34.687 0 0 0 327.947 10.865 Q 328.613 10.996 329.206 11.082 A 18.581 18.581 0 0 0 329.729 11.15 Q 331.029 11.3 331.929 11.3 Z M 70.429 43.6 A 0.296 0.296 0 0 0 70.506 43.655 Q 70.595 43.7 70.729 43.7 A 0.673 0.673 0 0 0 70.771 43.699 Q 70.929 43.689 70.929 43.6 A 0.645 0.645 0 0 0 70.79 43.191 Q 70.628 42.984 70.279 42.85 Q 69.778 42.658 69.663 41.962 A 2.837 2.837 0 0 1 69.629 41.5 A 1.415 1.415 0 0 1 69.87 40.698 Q 70.178 40.236 70.879 39.9 Q 72.129 39.3 73.879 39.05 Q 75.629 38.8 77.179 38.75 Q 78.729 38.7 79.429 38.7 Q 80.729 38.7 81.979 38.85 Q 83.229 39 84.429 39 A 2.029 2.029 0 0 0 84.571 38.995 Q 84.647 38.989 84.734 38.978 A 4.666 4.666 0 0 0 84.929 38.95 Q 85.047 38.93 85.119 38.887 A 0.207 0.207 0 0 0 85.229 38.7 A 0.283 0.283 0 0 0 85.218 38.624 Q 85.159 38.414 84.784 38.158 A 3.852 3.852 0 0 0 84.529 38 Q 83.829 37.6 83.529 37.5 Q 80.929 36.6 77.979 35.65 A 21.286 21.286 0 0 0 77.426 35.48 A 18.808 18.808 0 0 0 72.129 34.7 A 8.733 8.733 0 0 0 71.751 34.708 Q 71.257 34.73 70.699 34.806 A 16.603 16.603 0 0 0 69.579 35 Q 68.129 35.3 67.079 36.05 A 2.381 2.381 0 0 0 66.147 37.377 A 3.387 3.387 0 0 0 66.029 38.3 A 4.392 4.392 0 0 0 66.509 40.306 A 5.609 5.609 0 0 0 67.429 41.6 A 8.554 8.554 0 0 0 68.622 42.671 A 6.166 6.166 0 0 0 70.429 43.6 Z M 292.529 43.6 A 0.296 0.296 0 0 0 292.606 43.655 Q 292.695 43.7 292.829 43.7 A 0.673 0.673 0 0 0 292.871 43.699 Q 293.029 43.689 293.029 43.6 A 0.645 0.645 0 0 0 292.89 43.191 Q 292.728 42.984 292.379 42.85 Q 291.878 42.658 291.763 41.962 A 2.837 2.837 0 0 1 291.729 41.5 A 1.415 1.415 0 0 1 291.97 40.698 Q 292.278 40.236 292.979 39.9 Q 294.229 39.3 295.979 39.05 Q 297.729 38.8 299.279 38.75 Q 300.829 38.7 301.529 38.7 Q 302.829 38.7 304.079 38.85 Q 305.329 39 306.529 39 A 2.029 2.029 0 0 0 306.671 38.995 Q 306.747 38.989 306.834 38.978 A 4.666 4.666 0 0 0 307.029 38.95 Q 307.147 38.93 307.219 38.887 A 0.207 0.207 0 0 0 307.329 38.7 A 0.283 0.283 0 0 0 307.318 38.624 Q 307.259 38.414 306.884 38.158 A 3.852 3.852 0 0 0 306.629 38 Q 305.929 37.6 305.629 37.5 Q 303.029 36.6 300.079 35.65 A 21.286 21.286 0 0 0 299.526 35.48 A 18.808 18.808 0 0 0 294.229 34.7 A 8.733 8.733 0 0 0 293.851 34.708 Q 293.357 34.73 292.799 34.806 A 16.603 16.603 0 0 0 291.679 35 Q 290.229 35.3 289.179 36.05 A 2.381 2.381 0 0 0 288.247 37.377 A 3.387 3.387 0 0 0 288.129 38.3 A 4.392 4.392 0 0 0 288.609 40.306 A 5.609 5.609 0 0 0 289.529 41.6 A 8.554 8.554 0 0 0 290.722 42.671 A 6.166 6.166 0 0 0 292.529 43.6 Z" vector-effect="non-scaling-stroke"/></g></svg>